<svg width="209" height="60" viewBox="0 0 209 60" fill="none" xmlns="http://www.w3.org/2000/svg">
<path d="M10.416 11.168C12.56 10.368 14.496 10.016 16.224 10.112C17.984 10.208 19.552 10.656 20.928 11.456C22.304 12.224 23.472 13.264 24.432 14.576C25.424 15.888 26.224 17.36 26.832 18.992C27.312 20.208 27.68 21.488 27.936 22.832C28.192 24.176 28.336 25.52 28.368 26.864C28.432 28.176 28.384 29.472 28.224 30.752C28.096 32.032 27.872 33.216 27.552 34.304C27.36 35.04 27.136 35.712 26.88 36.32C26.624 36.928 26.32 37.536 25.968 38.144C25.168 39.52 24.128 40.64 22.848 41.504C21.6 42.368 20.224 42.976 18.72 43.328C17.696 43.584 16.64 43.712 15.552 43.712C14.464 43.68 13.392 43.536 12.336 43.28C11.28 42.992 10.256 42.592 9.264 42.08C8.304 41.536 7.424 40.864 6.624 40.064C5.632 39.104 4.816 38 4.176 36.752C3.536 35.472 3.04 34.144 2.688 32.768C2.336 31.36 2.112 29.952 2.016 28.544C1.92 27.136 1.92 25.792 2.016 24.512C2.112 23.328 2.336 22.064 2.688 20.72C3.072 19.376 3.616 18.08 4.32 16.832C5.024 15.584 5.872 14.464 6.864 13.472C7.888 12.448 9.072 11.68 10.416 11.168ZM21.648 31.712C22.032 30.208 22.192 28.512 22.128 26.624C22.064 24.736 21.76 22.96 21.216 21.296C20.864 20.272 20.416 19.376 19.872 18.608C19.36 17.808 18.736 17.2 18 16.784C17.296 16.368 16.464 16.16 15.504 16.16C14.544 16.16 13.472 16.448 12.288 17.024C11.584 17.376 10.976 17.856 10.464 18.464C9.984 19.072 9.584 19.76 9.264 20.528C8.976 21.296 8.736 22.096 8.544 22.928C8.384 23.76 8.288 24.56 8.256 25.328C8.192 26.16 8.176 27.04 8.208 27.968C8.24 28.864 8.336 29.776 8.496 30.704C8.688 31.6 8.944 32.464 9.264 33.296C9.584 34.096 10.016 34.816 10.56 35.456C11.392 36.416 12.352 37.088 13.44 37.472C14.56 37.824 15.664 37.872 16.752 37.616C18.512 37.232 19.856 36.064 20.784 34.112C21.168 33.408 21.456 32.608 21.648 31.712ZM60.663 12.32C60.823 13.056 60.839 13.808 60.711 14.576C60.615 15.312 60.471 15.984 60.279 16.592C59.895 17.84 59.447 19.232 58.935 20.768C58.423 22.304 57.911 23.84 57.399 25.376C56.887 26.912 56.391 28.368 55.911 29.744C55.431 31.088 55.031 32.208 54.711 33.104C54.391 33.936 54.055 34.88 53.703 35.936C53.351 36.992 52.919 38.032 52.407 39.056C51.927 40.048 51.351 40.96 50.679 41.792C50.039 42.624 49.255 43.232 48.327 43.616C47.399 44 46.551 44.096 45.783 43.904C45.015 43.68 44.327 43.296 43.719 42.752C43.111 42.176 42.551 41.472 42.039 40.64C41.559 39.776 41.127 38.896 40.743 38C40.359 37.104 40.007 36.24 39.687 35.408C39.367 34.544 39.079 33.808 38.823 33.2C37.831 31.024 36.935 28.72 36.135 26.288C35.335 23.856 34.519 21.536 33.687 19.328C33.463 18.688 33.207 17.92 32.919 17.024C32.631 16.096 32.439 15.184 32.343 14.288C32.279 13.36 32.391 12.528 32.679 11.792C32.967 11.024 33.575 10.496 34.503 10.208C34.695 10.144 34.887 10.096 35.079 10.064C35.303 10 35.511 9.952 35.703 9.92C35.927 9.92 36.135 9.936 36.327 9.968C36.519 10 36.727 10.08 36.951 10.208C37.111 10.272 37.271 10.352 37.431 10.448C37.591 10.512 37.735 10.608 37.863 10.736C37.991 10.896 38.103 11.056 38.199 11.216C38.327 11.376 38.455 11.536 38.583 11.696C38.679 11.92 38.759 12.128 38.823 12.32C38.919 12.48 38.999 12.64 39.063 12.8C39.127 13.024 39.207 13.232 39.303 13.424C39.399 13.584 39.479 13.744 39.543 13.904L39.831 14.72L46.743 34.448L53.559 14.768L53.895 13.952C53.959 13.792 54.023 13.632 54.087 13.472C54.151 13.28 54.215 13.072 54.279 12.848C54.343 12.688 54.407 12.528 54.471 12.368C54.567 12.176 54.679 11.984 54.807 11.792C54.903 11.632 54.999 11.472 55.095 11.312C55.223 11.12 55.351 10.944 55.479 10.784C55.575 10.656 55.687 10.544 55.815 10.448C55.975 10.352 56.119 10.272 56.247 10.208C56.503 10.08 56.727 10 56.919 9.968C57.143 9.936 57.335 9.92 57.495 9.92C57.687 9.952 57.879 10 58.071 10.064C58.295 10.096 58.503 10.144 58.695 10.208C59.303 10.368 59.751 10.64 60.039 11.024C60.359 11.408 60.567 11.84 60.663 12.32ZM71.2148 15.776L71.1188 23.312H73.0388C74.3508 23.28 75.5188 23.264 76.5428 23.264C77.5668 23.264 78.7028 23.28 79.9508 23.312H80.1908C80.5748 23.312 80.9428 23.328 81.2948 23.36C81.6788 23.36 82.0468 23.36 82.3988 23.36C82.7828 23.392 83.1508 23.456 83.5028 23.552C83.8548 23.616 84.2068 23.696 84.5588 23.792C85.1028 23.984 85.5508 24.272 85.9028 24.656C86.2228 25.072 86.3828 25.536 86.3828 26.048C86.3828 26.208 86.3828 26.4 86.3828 26.624C86.3828 26.816 86.3508 26.992 86.2868 27.152C86.2228 27.504 86.0148 27.824 85.6628 28.112C85.5028 28.336 85.1988 28.496 84.7508 28.592C84.3348 28.72 83.9188 28.8 83.5028 28.832C83.0548 28.928 82.6068 28.976 82.1588 28.976H79.9028L71.0228 29.024L70.9268 38.432L80.4788 38.528H82.7348C82.9908 38.528 83.2308 38.528 83.4548 38.528C83.6788 38.528 83.8868 38.544 84.0788 38.576C84.3348 38.64 84.5588 38.688 84.7508 38.72C84.9748 38.72 85.1828 38.752 85.3748 38.816C85.7588 38.944 86.0788 39.12 86.3348 39.344C86.6548 39.664 86.8628 40 86.9587 40.352C86.9908 40.512 87.0068 40.688 87.0068 40.88C87.0388 41.04 87.0388 41.216 87.0068 41.408C87.0068 41.92 86.8468 42.384 86.5268 42.8C86.1428 43.248 85.6948 43.536 85.1828 43.664C84.5108 43.952 83.7748 44.096 82.9748 44.096C82.6228 44.128 82.2548 44.144 81.8708 44.144C81.4868 44.144 81.1188 44.16 80.7668 44.192H80.4788C77.9828 44.256 75.3908 44.256 72.7028 44.192C72.0628 44.192 71.5508 44.176 71.1668 44.144C70.7828 44.144 70.4308 44.144 70.1108 44.144C69.8228 44.144 69.5188 44.144 69.1988 44.144C68.8788 44.144 68.4628 44.144 67.9508 44.144C67.2148 44.208 66.6068 44.08 66.1268 43.76C65.7748 43.536 65.5028 43.232 65.3108 42.848C65.2148 42.752 65.1668 42.656 65.1668 42.56C65.1348 42.496 65.1028 42.448 65.0708 42.416C65.0388 42.384 65.0068 42.336 64.9748 42.272C64.9108 42.112 64.8628 41.952 64.8308 41.792C64.7988 41.6 64.7828 41.424 64.7828 41.264C64.7508 41.104 64.7188 40.944 64.6868 40.784C64.6868 40.624 64.6708 40.464 64.6388 40.304V39.536C64.6388 39.408 64.6388 39.28 64.6388 39.152C64.6708 39.024 64.6868 38.896 64.6868 38.768V35.024L64.7828 28.112V21.728C64.7828 20.576 64.7828 19.552 64.7828 18.656C64.8148 17.76 64.8468 16.784 64.8788 15.728V15.488C64.9108 15.136 64.9268 14.816 64.9268 14.528C64.9588 14.208 64.9748 13.888 64.9748 13.568C65.0068 12.928 65.1828 12.304 65.5028 11.696C65.6308 11.44 65.7588 11.216 65.8867 11.024C66.0468 10.832 66.2548 10.672 66.5108 10.544C66.9908 10.256 67.4868 10.112 67.9988 10.112C68.2548 10.112 68.4468 10.128 68.5748 10.16V10.112C69.1508 10.112 69.6148 10.112 69.9668 10.112C70.3188 10.112 70.6548 10.112 70.9748 10.112C71.3268 10.112 71.6948 10.112 72.0788 10.112C72.4628 10.08 72.9908 10.064 73.6628 10.064C74.9428 10.032 76.1588 10.016 77.3108 10.016C78.4628 10.016 79.6468 10.032 80.8628 10.064H81.0548C81.4068 10.096 81.7748 10.112 82.1588 10.112C82.5428 10.112 82.9108 10.128 83.2628 10.16C83.6148 10.16 83.9668 10.208 84.3188 10.304C84.6708 10.368 85.0228 10.464 85.3748 10.592C85.9188 10.752 86.3668 11.024 86.7188 11.408C87.0068 11.856 87.1508 12.304 87.1508 12.752C87.1508 12.944 87.1508 13.136 87.1508 13.328C87.1508 13.488 87.1188 13.648 87.0548 13.808C87.0228 14.128 86.8308 14.464 86.4788 14.816C86.3508 14.88 86.2068 14.96 86.0468 15.056C85.9188 15.152 85.7588 15.232 85.5668 15.296C85.3748 15.36 85.1668 15.408 84.9428 15.44C84.7508 15.44 84.5588 15.456 84.3668 15.488C84.1108 15.552 83.8708 15.584 83.6468 15.584C83.4548 15.584 83.2308 15.584 82.9748 15.584H80.8148L71.2148 15.632V15.776ZM115.751 41.888C115.783 42.208 115.751 42.512 115.655 42.8C115.591 42.992 115.495 43.152 115.367 43.28C115.271 43.408 115.143 43.536 114.983 43.664C114.695 43.856 114.343 44.032 113.927 44.192C113.671 44.256 113.415 44.304 113.159 44.336C112.935 44.4 112.695 44.4 112.439 44.336C111.927 44.304 111.479 44.112 111.095 43.76C110.551 43.312 110.103 42.816 109.751 42.272C109.591 42.016 109.415 41.728 109.223 41.408C109.031 41.088 108.855 40.752 108.695 40.4L103.367 30.272C103.111 30.272 102.855 30.288 102.599 30.32C102.343 30.32 102.087 30.336 101.831 30.368C101.159 30.432 100.519 30.448 99.9105 30.416C99.3345 30.384 98.7265 30.384 98.0865 30.416H97.1745V39.104C97.1745 39.36 97.1585 39.6 97.1265 39.824C97.1265 40.048 97.1265 40.288 97.1265 40.544C97.1265 40.704 97.1105 40.912 97.0785 41.168C97.0785 41.424 97.0625 41.664 97.0305 41.888C96.9665 42.24 96.8225 42.608 96.5985 42.992C96.3745 43.344 96.0705 43.648 95.6865 43.904C95.0145 44.32 94.1985 44.432 93.2385 44.24C92.8225 44.144 92.4225 43.984 92.0385 43.76C91.9105 43.664 91.7985 43.552 91.7025 43.424C91.6065 43.264 91.5265 43.104 91.4625 42.944C91.3985 42.784 91.3345 42.624 91.2705 42.464C91.2385 42.272 91.1905 42.096 91.1265 41.936C91.0305 41.616 90.9825 41.312 90.9825 41.024V13.76C90.9825 13.568 90.9825 13.376 90.9825 13.184C91.0145 12.96 91.0465 12.768 91.0785 12.608C91.1105 12.256 91.2225 11.904 91.4145 11.552C91.5105 11.168 91.6705 10.896 91.8945 10.736C92.0865 10.544 92.3745 10.384 92.7585 10.256C93.1745 10.096 93.7665 10.032 94.5345 10.064C95.9745 10.096 97.3985 10.112 98.8065 10.112C100.215 10.112 101.623 10.144 103.031 10.208C103.959 10.272 104.935 10.384 105.959 10.544C107.015 10.672 107.991 10.912 108.887 11.264C109.463 11.488 109.991 11.712 110.471 11.936C111.079 12.288 111.559 12.624 111.911 12.944C113.031 13.968 113.879 15.2 114.455 16.64C115.031 18.08 115.319 19.536 115.319 21.008C115.319 22.736 114.903 24.32 114.071 25.76C113.271 27.2 111.975 28.272 110.183 28.976C110.119 29.04 110.023 29.088 109.895 29.12C109.799 29.12 109.719 29.136 109.655 29.168L114.071 38.048L114.503 38.816C114.567 38.944 114.647 39.088 114.743 39.248C114.839 39.408 114.919 39.568 114.983 39.728C115.079 39.888 115.159 40.064 115.223 40.256C115.319 40.448 115.415 40.624 115.51 40.784C115.607 41.232 115.687 41.6 115.751 41.888ZM103.751 24.8C104.327 24.8 104.871 24.704 105.383 24.512C105.927 24.288 106.407 24 106.823 23.648C107.271 23.296 107.639 22.896 107.927 22.448C108.215 21.968 108.375 21.456 108.407 20.912C108.535 19.312 108.119 18.128 107.159 17.36C106.199 16.56 104.935 16.128 103.367 16.064C102.439 16 101.415 15.968 100.295 15.968C99.2065 15.968 98.1665 15.968 97.1745 15.968C97.2065 17.28 97.2065 18.624 97.1745 20C97.1745 21.344 97.1745 22.944 97.1745 24.8H103.751ZM141.799 40.352C141.863 40.512 141.895 40.752 141.895 41.072C141.895 41.36 141.895 41.6 141.895 41.792C141.895 42.048 141.847 42.288 141.751 42.512C141.655 42.736 141.527 42.944 141.367 43.136C141.079 43.52 140.663 43.808 140.119 44C139.351 44.256 138.631 44.384 137.959 44.384C137.607 44.416 137.239 44.432 136.855 44.432C136.471 44.432 136.087 44.464 135.703 44.528H135.511C133.047 44.56 130.503 44.56 127.879 44.528C127.239 44.496 126.519 44.496 125.719 44.528C124.919 44.592 124.135 44.576 123.367 44.48C122.599 44.416 121.895 44.24 121.255 43.952C120.647 43.632 120.215 43.136 119.959 42.464C119.895 42.304 119.847 42.16 119.815 42.032C119.783 41.872 119.767 41.712 119.767 41.552C119.639 40.464 119.591 39.392 119.623 38.336C119.655 37.28 119.671 36.24 119.671 35.216L119.767 28.256V21.824C119.767 20.672 119.767 19.648 119.767 18.752C119.799 17.856 119.831 16.864 119.863 15.776V15.536C119.895 15.216 119.911 14.896 119.911 14.576C119.943 14.256 119.959 13.936 119.959 13.616C120.023 12.88 120.199 12.256 120.487 11.744C120.679 11.264 121.015 10.88 121.495 10.592C121.911 10.304 122.407 10.16 122.983 10.16C123.207 10.16 123.415 10.176 123.607 10.208C123.831 10.208 124.039 10.224 124.231 10.256C124.423 10.288 124.599 10.352 124.759 10.448C124.951 10.544 125.143 10.672 125.335 10.832C125.527 11.056 125.703 11.328 125.863 11.648C125.991 12 126.071 12.352 126.103 12.704C126.135 12.928 126.167 13.136 126.199 13.328C126.231 13.52 126.247 13.712 126.247 13.904C126.183 14.096 126.151 14.288 126.151 14.48C126.151 14.672 126.151 14.848 126.151 15.008V15.872L125.959 38.48L135.463 38.576H137.719C137.911 38.576 138.119 38.592 138.343 38.624C138.567 38.624 138.791 38.64 139.015 38.672C139.271 38.704 139.495 38.736 139.687 38.768C139.879 38.8 140.071 38.848 140.263 38.912C140.615 39.008 140.903 39.168 141.127 39.392C141.479 39.712 141.703 40.032 141.799 40.352ZM175.349 40.736C175.381 40.928 175.397 41.12 175.397 41.312C175.429 41.472 175.445 41.664 175.445 41.888C175.445 42.272 175.333 42.624 175.109 42.944C175.013 43.104 174.885 43.264 174.725 43.424C174.565 43.552 174.373 43.664 174.149 43.76C173.349 44.208 172.501 44.368 171.605 44.24C171.157 44.112 170.757 43.904 170.405 43.616C170.341 43.552 170.293 43.52 170.26 43.52C170.229 43.488 170.197 43.44 170.165 43.376C170.133 43.344 170.101 43.312 170.069 43.28C170.037 43.216 169.989 43.168 169.925 43.136C169.765 42.976 169.637 42.832 169.541 42.704C169.445 42.544 169.349 42.384 169.253 42.224C169.189 42.064 169.109 41.92 169.013 41.792C168.949 41.632 168.869 41.472 168.773 41.312C168.709 41.184 168.645 41.072 168.581 40.976C168.517 40.848 168.469 40.72 168.437 40.592C168.309 40.304 168.229 40.048 168.197 39.824L167.189 37.472C164.981 37.472 162.773 37.488 160.565 37.52C158.389 37.52 156.197 37.504 153.989 37.472L152.981 39.824C152.917 39.952 152.869 40.08 152.837 40.208C152.837 40.336 152.805 40.464 152.741 40.592C152.677 40.72 152.613 40.848 152.549 40.976C152.517 41.072 152.469 41.184 152.405 41.312C152.309 41.472 152.213 41.632 152.117 41.792C152.053 41.92 151.973 42.064 151.877 42.224C151.813 42.384 151.733 42.544 151.637 42.704C151.541 42.832 151.413 42.976 151.253 43.136C151.189 43.168 151.141 43.216 151.109 43.28C151.077 43.312 151.045 43.344 151.013 43.376C150.981 43.44 150.949 43.488 150.917 43.52C150.885 43.52 150.837 43.552 150.773 43.616C150.421 43.904 150.021 44.112 149.573 44.24C148.677 44.368 147.829 44.208 147.029 43.76C146.805 43.664 146.613 43.552 146.453 43.424C146.293 43.264 146.165 43.104 146.069 42.944C145.845 42.624 145.733 42.272 145.733 41.888C145.733 41.664 145.733 41.472 145.733 41.312C145.765 41.12 145.797 40.928 145.829 40.736C145.893 40.448 145.973 40.16 146.069 39.872C146.165 39.584 146.213 39.44 146.213 39.44L156.197 14.864L156.484 14.096C156.549 13.904 156.629 13.728 156.725 13.568C156.821 13.408 156.901 13.216 156.965 12.992C157.125 12.576 157.301 12.208 157.493 11.888C157.589 11.696 157.701 11.52 157.829 11.36C157.957 11.2 158.085 11.04 158.213 10.88C158.405 10.624 158.677 10.416 159.029 10.256C159.477 10.096 159.989 10.016 160.565 10.016C161.173 10.016 161.701 10.096 162.149 10.256C162.501 10.416 162.773 10.624 162.965 10.88C163.189 11.168 163.429 11.504 163.685 11.888C163.877 12.208 164.053 12.576 164.213 12.992C164.277 13.216 164.357 13.408 164.453 13.568C164.549 13.728 164.629 13.904 164.693 14.096L164.981 14.864L174.965 39.44C174.965 39.44 175.013 39.584 175.109 39.872C175.205 40.16 175.285 40.448 175.349 40.736ZM163.973 28.976C163.557 28.048 163.125 27.088 162.677 26.096C162.261 25.104 161.813 24.096 161.333 23.072C161.205 22.784 161.077 22.496 160.949 22.208C160.821 21.888 160.693 21.584 160.565 21.296C160.469 21.584 160.357 21.888 160.229 22.208C160.101 22.496 159.973 22.784 159.845 23.072C159.365 24.096 158.901 25.104 158.453 26.096C158.037 27.088 157.621 28.048 157.205 28.976L156.341 31.088H164.837L163.973 28.976ZM200.079 13.04C201.295 14.16 202.191 15.504 202.767 17.072C203.343 18.608 203.567 20.144 203.439 21.68C203.311 23.152 202.847 24.512 202.047 25.76C201.247 26.976 200.031 27.904 198.399 28.544C197.119 29.088 195.855 29.472 194.607 29.696C193.359 29.92 191.983 30.096 190.479 30.224C189.807 30.288 189.231 30.336 188.751 30.368C188.303 30.368 187.775 30.384 187.167 30.416C187.039 30.416 186.815 30.416 186.495 30.416C186.207 30.416 185.999 30.432 185.871 30.464V40.4C185.775 41.008 185.647 41.632 185.487 42.272C185.359 42.912 184.991 43.408 184.383 43.76C184.031 43.952 183.599 44.064 183.087 44.096C182.575 44.128 182.111 44.112 181.695 44.048C181.247 43.984 180.863 43.872 180.543 43.712C180.255 43.52 180.015 43.2 179.823 42.752C179.695 42.464 179.567 42.144 179.439 41.792C179.343 41.408 179.295 40.944 179.295 40.4V13.856C179.295 13.632 179.311 13.424 179.343 13.232C179.375 13.04 179.407 12.848 179.439 12.656C179.503 12.496 179.551 12.32 179.583 12.128C179.615 11.936 179.663 11.76 179.727 11.6C179.791 11.44 179.855 11.296 179.919 11.168C180.015 11.04 180.127 10.928 180.255 10.832C180.415 10.672 180.655 10.528 180.975 10.4C181.327 10.272 181.839 10.208 182.511 10.208H182.607C183.599 10.144 184.703 10.096 185.919 10.064C187.135 10 188.143 10.016 188.943 10.112C189.391 10.176 189.807 10.224 190.191 10.256C190.575 10.256 190.943 10.272 191.295 10.304C191.679 10.336 192.063 10.368 192.447 10.4C192.831 10.432 193.215 10.48 193.599 10.544C193.919 10.608 194.207 10.656 194.463 10.688C194.751 10.72 195.039 10.768 195.327 10.832C195.583 10.896 195.855 10.96 196.143 11.024C196.463 11.088 196.751 11.2 197.007 11.36C197.679 11.552 198.239 11.792 198.687 12.08C199.135 12.368 199.599 12.688 200.079 13.04ZM197.199 20.96C197.231 20.192 197.071 19.52 196.719 18.944C196.399 18.368 195.935 17.888 195.327 17.504C194.719 17.12 194.031 16.816 193.263 16.592C192.495 16.368 191.727 16.208 190.959 16.112C190.767 16.112 190.495 16.112 190.143 16.112C189.823 16.08 189.471 16.064 189.087 16.064C188.703 16.032 188.335 16.016 187.983 16.016C187.663 15.984 187.407 15.968 187.215 15.968C187.055 15.936 186.863 15.92 186.639 15.92C186.415 15.92 186.159 15.92 185.871 15.92C185.903 16.912 185.919 17.872 185.919 18.8C185.919 19.696 185.919 20.672 185.919 21.728C185.887 22.304 185.871 22.88 185.871 23.456C185.871 24.032 185.871 24.592 185.871 25.136L188.847 25.088C189.615 25.088 190.463 25.04 191.391 24.944C192.319 24.848 193.199 24.656 194.031 24.368C194.863 24.08 195.567 23.664 196.143 23.12C196.751 22.576 197.103 21.856 197.199 20.96Z" fill="#FE0604"/>
<path d="M13.416 11.168C15.56 10.368 17.496 10.016 19.224 10.112C20.984 10.208 22.552 10.656 23.928 11.456C25.304 12.224 26.472 13.264 27.432 14.576C28.424 15.888 29.224 17.36 29.832 18.992C30.312 20.208 30.68 21.488 30.936 22.832C31.192 24.176 31.336 25.52 31.368 26.864C31.432 28.176 31.384 29.472 31.224 30.752C31.096 32.032 30.872 33.216 30.552 34.304C30.36 35.04 30.136 35.712 29.88 36.32C29.624 36.928 29.32 37.536 28.968 38.144C28.168 39.52 27.128 40.64 25.848 41.504C24.6 42.368 23.224 42.976 21.72 43.328C20.696 43.584 19.64 43.712 18.552 43.712C17.464 43.68 16.392 43.536 15.336 43.28C14.28 42.992 13.256 42.592 12.264 42.08C11.304 41.536 10.424 40.864 9.624 40.064C8.632 39.104 7.816 38 7.176 36.752C6.536 35.472 6.04 34.144 5.688 32.768C5.336 31.36 5.112 29.952 5.016 28.544C4.92 27.136 4.92 25.792 5.016 24.512C5.112 23.328 5.336 22.064 5.688 20.72C6.072 19.376 6.616 18.08 7.32 16.832C8.024 15.584 8.872 14.464 9.864 13.472C10.888 12.448 12.072 11.68 13.416 11.168ZM24.648 31.712C25.032 30.208 25.192 28.512 25.128 26.624C25.064 24.736 24.76 22.96 24.216 21.296C23.864 20.272 23.416 19.376 22.872 18.608C22.36 17.808 21.736 17.2 21 16.784C20.296 16.368 19.464 16.16 18.504 16.16C17.544 16.16 16.472 16.448 15.288 17.024C14.584 17.376 13.976 17.856 13.464 18.464C12.984 19.072 12.584 19.76 12.264 20.528C11.976 21.296 11.736 22.096 11.544 22.928C11.384 23.76 11.288 24.56 11.256 25.328C11.192 26.16 11.176 27.04 11.208 27.968C11.24 28.864 11.336 29.776 11.496 30.704C11.688 31.6 11.944 32.464 12.264 33.296C12.584 34.096 13.016 34.816 13.56 35.456C14.392 36.416 15.352 37.088 16.44 37.472C17.56 37.824 18.664 37.872 19.752 37.616C21.512 37.232 22.856 36.064 23.784 34.112C24.168 33.408 24.456 32.608 24.648 31.712ZM63.663 12.32C63.823 13.056 63.839 13.808 63.711 14.576C63.615 15.312 63.471 15.984 63.279 16.592C62.895 17.84 62.447 19.232 61.935 20.768C61.423 22.304 60.911 23.84 60.399 25.376C59.887 26.912 59.391 28.368 58.911 29.744C58.431 31.088 58.031 32.208 57.711 33.104C57.391 33.936 57.055 34.88 56.703 35.936C56.351 36.992 55.919 38.032 55.407 39.056C54.927 40.048 54.351 40.96 53.679 41.792C53.039 42.624 52.255 43.232 51.327 43.616C50.399 44 49.551 44.096 48.783 43.904C48.015 43.68 47.327 43.296 46.719 42.752C46.111 42.176 45.551 41.472 45.039 40.64C44.559 39.776 44.127 38.896 43.743 38C43.359 37.104 43.007 36.24 42.687 35.408C42.367 34.544 42.079 33.808 41.823 33.2C40.831 31.024 39.935 28.72 39.135 26.288C38.335 23.856 37.519 21.536 36.687 19.328C36.463 18.688 36.207 17.92 35.919 17.024C35.631 16.096 35.439 15.184 35.343 14.288C35.279 13.36 35.391 12.528 35.679 11.792C35.967 11.024 36.575 10.496 37.503 10.208C37.695 10.144 37.887 10.096 38.079 10.064C38.303 10 38.511 9.952 38.703 9.92C38.927 9.92 39.135 9.936 39.327 9.968C39.519 10 39.727 10.08 39.951 10.208C40.111 10.272 40.271 10.352 40.431 10.448C40.591 10.512 40.735 10.608 40.863 10.736C40.991 10.896 41.103 11.056 41.199 11.216C41.327 11.376 41.455 11.536 41.583 11.696C41.679 11.92 41.759 12.128 41.823 12.32C41.919 12.48 41.999 12.64 42.063 12.8C42.127 13.024 42.207 13.232 42.303 13.424C42.399 13.584 42.479 13.744 42.543 13.904L42.831 14.72L49.743 34.448L56.559 14.768L56.895 13.952C56.959 13.792 57.023 13.632 57.087 13.472C57.151 13.28 57.215 13.072 57.279 12.848C57.343 12.688 57.407 12.528 57.471 12.368C57.567 12.176 57.679 11.984 57.807 11.792C57.903 11.632 57.999 11.472 58.095 11.312C58.223 11.12 58.351 10.944 58.479 10.784C58.575 10.656 58.687 10.544 58.815 10.448C58.975 10.352 59.119 10.272 59.247 10.208C59.503 10.08 59.727 10 59.919 9.968C60.143 9.936 60.335 9.92 60.495 9.92C60.687 9.952 60.879 10 61.071 10.064C61.295 10.096 61.503 10.144 61.695 10.208C62.303 10.368 62.751 10.64 63.039 11.024C63.359 11.408 63.567 11.84 63.663 12.32ZM74.2148 15.776L74.1188 23.312H76.0388C77.3508 23.28 78.5188 23.264 79.5428 23.264C80.5668 23.264 81.7028 23.28 82.9508 23.312H83.1908C83.5748 23.312 83.9428 23.328 84.2948 23.36C84.6788 23.36 85.0468 23.36 85.3988 23.36C85.7828 23.392 86.1508 23.456 86.5028 23.552C86.8548 23.616 87.2068 23.696 87.5588 23.792C88.1028 23.984 88.5508 24.272 88.9028 24.656C89.2228 25.072 89.3828 25.536 89.3828 26.048C89.3828 26.208 89.3828 26.4 89.3828 26.624C89.3828 26.816 89.3508 26.992 89.2868 27.152C89.2228 27.504 89.0148 27.824 88.6628 28.112C88.5028 28.336 88.1988 28.496 87.7508 28.592C87.3348 28.72 86.9188 28.8 86.5028 28.832C86.0548 28.928 85.6068 28.976 85.1588 28.976H82.9028L74.0228 29.024L73.9268 38.432L83.4788 38.528H85.7348C85.9908 38.528 86.2308 38.528 86.4548 38.528C86.6788 38.528 86.8868 38.544 87.0788 38.576C87.3348 38.64 87.5588 38.688 87.7508 38.72C87.9748 38.72 88.1828 38.752 88.3748 38.816C88.7588 38.944 89.0788 39.12 89.3348 39.344C89.6548 39.664 89.8628 40 89.9587 40.352C89.9908 40.512 90.0068 40.688 90.0068 40.88C90.0388 41.04 90.0388 41.216 90.0068 41.408C90.0068 41.92 89.8468 42.384 89.5268 42.8C89.1428 43.248 88.6948 43.536 88.1828 43.664C87.5108 43.952 86.7748 44.096 85.9748 44.096C85.6228 44.128 85.2548 44.144 84.8708 44.144C84.4868 44.144 84.1188 44.16 83.7668 44.192H83.4788C80.9828 44.256 78.3908 44.256 75.7028 44.192C75.0628 44.192 74.5508 44.176 74.1668 44.144C73.7828 44.144 73.4308 44.144 73.1108 44.144C72.8228 44.144 72.5188 44.144 72.1988 44.144C71.8788 44.144 71.4628 44.144 70.9508 44.144C70.2148 44.208 69.6068 44.08 69.1268 43.76C68.7748 43.536 68.5028 43.232 68.3108 42.848C68.2148 42.752 68.1668 42.656 68.1668 42.56C68.1348 42.496 68.1028 42.448 68.0708 42.416C68.0388 42.384 68.0068 42.336 67.9748 42.272C67.9108 42.112 67.8628 41.952 67.8308 41.792C67.7988 41.6 67.7828 41.424 67.7828 41.264C67.7508 41.104 67.7188 40.944 67.6868 40.784C67.6868 40.624 67.6708 40.464 67.6388 40.304V39.536C67.6388 39.408 67.6388 39.28 67.6388 39.152C67.6708 39.024 67.6868 38.896 67.6868 38.768V35.024L67.7828 28.112V21.728C67.7828 20.576 67.7828 19.552 67.7828 18.656C67.8148 17.76 67.8468 16.784 67.8788 15.728V15.488C67.9108 15.136 67.9268 14.816 67.9268 14.528C67.9588 14.208 67.9748 13.888 67.9748 13.568C68.0068 12.928 68.1828 12.304 68.5028 11.696C68.6308 11.44 68.7588 11.216 68.8867 11.024C69.0468 10.832 69.2548 10.672 69.5108 10.544C69.9908 10.256 70.4868 10.112 70.9988 10.112C71.2548 10.112 71.4468 10.128 71.5748 10.16V10.112C72.1508 10.112 72.6148 10.112 72.9668 10.112C73.3188 10.112 73.6548 10.112 73.9748 10.112C74.3268 10.112 74.6948 10.112 75.0788 10.112C75.4628 10.08 75.9908 10.064 76.6628 10.064C77.9428 10.032 79.1588 10.016 80.3108 10.016C81.4628 10.016 82.6468 10.032 83.8628 10.064H84.0548C84.4068 10.096 84.7748 10.112 85.1588 10.112C85.5428 10.112 85.9108 10.128 86.2628 10.16C86.6148 10.16 86.9668 10.208 87.3188 10.304C87.6708 10.368 88.0228 10.464 88.3748 10.592C88.9188 10.752 89.3668 11.024 89.7188 11.408C90.0068 11.856 90.1508 12.304 90.1508 12.752C90.1508 12.944 90.1508 13.136 90.1508 13.328C90.1508 13.488 90.1188 13.648 90.0548 13.808C90.0228 14.128 89.8308 14.464 89.4788 14.816C89.3508 14.88 89.2068 14.96 89.0468 15.056C88.9188 15.152 88.7588 15.232 88.5668 15.296C88.3748 15.36 88.1668 15.408 87.9428 15.44C87.7508 15.44 87.5588 15.456 87.3668 15.488C87.1108 15.552 86.8708 15.584 86.6468 15.584C86.4548 15.584 86.2308 15.584 85.9748 15.584H83.8148L74.2148 15.632V15.776ZM118.751 41.888C118.783 42.208 118.751 42.512 118.655 42.8C118.591 42.992 118.495 43.152 118.367 43.28C118.271 43.408 118.143 43.536 117.983 43.664C117.695 43.856 117.343 44.032 116.927 44.192C116.671 44.256 116.415 44.304 116.159 44.336C115.935 44.4 115.695 44.4 115.439 44.336C114.927 44.304 114.479 44.112 114.095 43.76C113.551 43.312 113.103 42.816 112.751 42.272C112.591 42.016 112.415 41.728 112.223 41.408C112.031 41.088 111.855 40.752 111.695 40.4L106.367 30.272C106.111 30.272 105.855 30.288 105.599 30.32C105.343 30.32 105.087 30.336 104.831 30.368C104.159 30.432 103.519 30.448 102.911 30.416C102.335 30.384 101.727 30.384 101.087 30.416H100.175V39.104C100.175 39.36 100.159 39.6 100.127 39.824C100.127 40.048 100.127 40.288 100.127 40.544C100.127 40.704 100.111 40.912 100.079 41.168C100.079 41.424 100.063 41.664 100.031 41.888C99.9665 42.24 99.8225 42.608 99.5985 42.992C99.3745 43.344 99.0705 43.648 98.6865 43.904C98.0145 44.32 97.1985 44.432 96.2385 44.24C95.8225 44.144 95.4225 43.984 95.0385 43.76C94.9105 43.664 94.7985 43.552 94.7025 43.424C94.6065 43.264 94.5265 43.104 94.4625 42.944C94.3985 42.784 94.3345 42.624 94.2705 42.464C94.2385 42.272 94.1905 42.096 94.1265 41.936C94.0305 41.616 93.9825 41.312 93.9825 41.024V13.76C93.9825 13.568 93.9825 13.376 93.9825 13.184C94.0145 12.96 94.0465 12.768 94.0785 12.608C94.1105 12.256 94.2225 11.904 94.4145 11.552C94.5105 11.168 94.6705 10.896 94.8945 10.736C95.0865 10.544 95.3745 10.384 95.7585 10.256C96.1745 10.096 96.7665 10.032 97.5345 10.064C98.9745 10.096 100.399 10.112 101.807 10.112C103.215 10.112 104.623 10.144 106.031 10.208C106.959 10.272 107.935 10.384 108.959 10.544C110.015 10.672 110.991 10.912 111.887 11.264C112.463 11.488 112.991 11.712 113.471 11.936C114.079 12.288 114.559 12.624 114.911 12.944C116.031 13.968 116.879 15.2 117.455 16.64C118.031 18.08 118.319 19.536 118.319 21.008C118.319 22.736 117.903 24.32 117.071 25.76C116.271 27.2 114.975 28.272 113.183 28.976C113.119 29.04 113.023 29.088 112.895 29.12C112.799 29.12 112.719 29.136 112.655 29.168L117.071 38.048L117.503 38.816C117.567 38.944 117.647 39.088 117.743 39.248C117.839 39.408 117.919 39.568 117.983 39.728C118.079 39.888 118.159 40.064 118.223 40.256C118.319 40.448 118.415 40.624 118.51 40.784C118.607 41.232 118.687 41.6 118.751 41.888ZM106.751 24.8C107.327 24.8 107.871 24.704 108.383 24.512C108.927 24.288 109.407 24 109.823 23.648C110.271 23.296 110.639 22.896 110.927 22.448C111.215 21.968 111.375 21.456 111.407 20.912C111.535 19.312 111.119 18.128 110.159 17.36C109.199 16.56 107.935 16.128 106.367 16.064C105.439 16 104.415 15.968 103.295 15.968C102.207 15.968 101.167 15.968 100.175 15.968C100.207 17.28 100.207 18.624 100.175 20C100.175 21.344 100.175 22.944 100.175 24.8H106.751ZM144.799 40.352C144.863 40.512 144.895 40.752 144.895 41.072C144.895 41.36 144.895 41.6 144.895 41.792C144.895 42.048 144.847 42.288 144.751 42.512C144.655 42.736 144.527 42.944 144.367 43.136C144.079 43.52 143.663 43.808 143.119 44C142.351 44.256 141.631 44.384 140.959 44.384C140.607 44.416 140.239 44.432 139.855 44.432C139.471 44.432 139.087 44.464 138.703 44.528H138.511C136.047 44.56 133.503 44.56 130.879 44.528C130.239 44.496 129.519 44.496 128.719 44.528C127.919 44.592 127.135 44.576 126.367 44.48C125.599 44.416 124.895 44.24 124.255 43.952C123.647 43.632 123.215 43.136 122.959 42.464C122.895 42.304 122.847 42.16 122.815 42.032C122.783 41.872 122.767 41.712 122.767 41.552C122.639 40.464 122.591 39.392 122.623 38.336C122.655 37.28 122.671 36.24 122.671 35.216L122.767 28.256V21.824C122.767 20.672 122.767 19.648 122.767 18.752C122.799 17.856 122.831 16.864 122.863 15.776V15.536C122.895 15.216 122.911 14.896 122.911 14.576C122.943 14.256 122.959 13.936 122.959 13.616C123.023 12.88 123.199 12.256 123.487 11.744C123.679 11.264 124.015 10.88 124.495 10.592C124.911 10.304 125.407 10.16 125.983 10.16C126.207 10.16 126.415 10.176 126.607 10.208C126.831 10.208 127.039 10.224 127.231 10.256C127.423 10.288 127.599 10.352 127.759 10.448C127.951 10.544 128.143 10.672 128.335 10.832C128.527 11.056 128.703 11.328 128.863 11.648C128.991 12 129.071 12.352 129.103 12.704C129.135 12.928 129.167 13.136 129.199 13.328C129.231 13.52 129.247 13.712 129.247 13.904C129.183 14.096 129.151 14.288 129.151 14.48C129.151 14.672 129.151 14.848 129.151 15.008V15.872L128.959 38.48L138.463 38.576H140.719C140.911 38.576 141.119 38.592 141.343 38.624C141.567 38.624 141.791 38.64 142.015 38.672C142.271 38.704 142.495 38.736 142.687 38.768C142.879 38.8 143.071 38.848 143.263 38.912C143.615 39.008 143.903 39.168 144.127 39.392C144.479 39.712 144.703 40.032 144.799 40.352ZM178.349 40.736C178.381 40.928 178.397 41.12 178.397 41.312C178.429 41.472 178.445 41.664 178.445 41.888C178.445 42.272 178.333 42.624 178.109 42.944C178.013 43.104 177.885 43.264 177.725 43.424C177.565 43.552 177.373 43.664 177.149 43.76C176.349 44.208 175.501 44.368 174.605 44.24C174.157 44.112 173.757 43.904 173.405 43.616C173.341 43.552 173.293 43.52 173.26 43.52C173.229 43.488 173.197 43.44 173.165 43.376C173.133 43.344 173.101 43.312 173.069 43.28C173.037 43.216 172.989 43.168 172.925 43.136C172.765 42.976 172.637 42.832 172.541 42.704C172.445 42.544 172.349 42.384 172.253 42.224C172.189 42.064 172.109 41.92 172.013 41.792C171.949 41.632 171.869 41.472 171.773 41.312C171.709 41.184 171.645 41.072 171.581 40.976C171.517 40.848 171.469 40.72 171.437 40.592C171.309 40.304 171.229 40.048 171.197 39.824L170.189 37.472C167.981 37.472 165.773 37.488 163.565 37.52C161.389 37.52 159.197 37.504 156.989 37.472L155.981 39.824C155.917 39.952 155.869 40.08 155.837 40.208C155.837 40.336 155.805 40.464 155.741 40.592C155.677 40.72 155.613 40.848 155.549 40.976C155.517 41.072 155.469 41.184 155.405 41.312C155.309 41.472 155.213 41.632 155.117 41.792C155.053 41.92 154.973 42.064 154.877 42.224C154.813 42.384 154.733 42.544 154.637 42.704C154.541 42.832 154.413 42.976 154.253 43.136C154.189 43.168 154.141 43.216 154.109 43.28C154.077 43.312 154.045 43.344 154.013 43.376C153.981 43.44 153.949 43.488 153.917 43.52C153.885 43.52 153.837 43.552 153.773 43.616C153.421 43.904 153.021 44.112 152.573 44.24C151.677 44.368 150.829 44.208 150.029 43.76C149.805 43.664 149.613 43.552 149.453 43.424C149.293 43.264 149.165 43.104 149.069 42.944C148.845 42.624 148.733 42.272 148.733 41.888C148.733 41.664 148.733 41.472 148.733 41.312C148.765 41.12 148.797 40.928 148.829 40.736C148.893 40.448 148.973 40.16 149.069 39.872C149.165 39.584 149.213 39.44 149.213 39.44L159.197 14.864L159.484 14.096C159.549 13.904 159.629 13.728 159.725 13.568C159.821 13.408 159.901 13.216 159.965 12.992C160.125 12.576 160.301 12.208 160.493 11.888C160.589 11.696 160.701 11.52 160.829 11.36C160.957 11.2 161.085 11.04 161.213 10.88C161.405 10.624 161.677 10.416 162.029 10.256C162.477 10.096 162.989 10.016 163.565 10.016C164.173 10.016 164.701 10.096 165.149 10.256C165.501 10.416 165.773 10.624 165.965 10.88C166.189 11.168 166.429 11.504 166.685 11.888C166.877 12.208 167.053 12.576 167.213 12.992C167.277 13.216 167.357 13.408 167.453 13.568C167.549 13.728 167.629 13.904 167.693 14.096L167.981 14.864L177.965 39.44C177.965 39.44 178.013 39.584 178.109 39.872C178.205 40.16 178.285 40.448 178.349 40.736ZM166.973 28.976C166.557 28.048 166.125 27.088 165.677 26.096C165.261 25.104 164.813 24.096 164.333 23.072C164.205 22.784 164.077 22.496 163.949 22.208C163.821 21.888 163.693 21.584 163.565 21.296C163.469 21.584 163.357 21.888 163.229 22.208C163.101 22.496 162.973 22.784 162.845 23.072C162.365 24.096 161.901 25.104 161.453 26.096C161.037 27.088 160.621 28.048 160.205 28.976L159.341 31.088H167.837L166.973 28.976ZM203.079 13.04C204.295 14.16 205.191 15.504 205.767 17.072C206.343 18.608 206.567 20.144 206.439 21.68C206.311 23.152 205.847 24.512 205.047 25.76C204.247 26.976 203.031 27.904 201.399 28.544C200.119 29.088 198.855 29.472 197.607 29.696C196.359 29.92 194.983 30.096 193.479 30.224C192.807 30.288 192.231 30.336 191.751 30.368C191.303 30.368 190.775 30.384 190.167 30.416C190.039 30.416 189.815 30.416 189.495 30.416C189.207 30.416 188.999 30.432 188.871 30.464V40.4C188.775 41.008 188.647 41.632 188.487 42.272C188.359 42.912 187.991 43.408 187.383 43.76C187.031 43.952 186.599 44.064 186.087 44.096C185.575 44.128 185.111 44.112 184.695 44.048C184.247 43.984 183.863 43.872 183.543 43.712C183.255 43.52 183.015 43.2 182.823 42.752C182.695 42.464 182.567 42.144 182.439 41.792C182.343 41.408 182.295 40.944 182.295 40.4V13.856C182.295 13.632 182.311 13.424 182.343 13.232C182.375 13.04 182.407 12.848 182.439 12.656C182.503 12.496 182.551 12.32 182.583 12.128C182.615 11.936 182.663 11.76 182.727 11.6C182.791 11.44 182.855 11.296 182.919 11.168C183.015 11.04 183.127 10.928 183.255 10.832C183.415 10.672 183.655 10.528 183.975 10.4C184.327 10.272 184.839 10.208 185.511 10.208H185.607C186.599 10.144 187.703 10.096 188.919 10.064C190.135 10 191.143 10.016 191.943 10.112C192.391 10.176 192.807 10.224 193.191 10.256C193.575 10.256 193.943 10.272 194.295 10.304C194.679 10.336 195.063 10.368 195.447 10.4C195.831 10.432 196.215 10.48 196.599 10.544C196.919 10.608 197.207 10.656 197.463 10.688C197.751 10.72 198.039 10.768 198.327 10.832C198.583 10.896 198.855 10.96 199.143 11.024C199.463 11.088 199.751 11.2 200.007 11.36C200.679 11.552 201.239 11.792 201.687 12.08C202.135 12.368 202.599 12.688 203.079 13.04ZM200.199 20.96C200.231 20.192 200.071 19.52 199.719 18.944C199.399 18.368 198.935 17.888 198.327 17.504C197.719 17.12 197.031 16.816 196.263 16.592C195.495 16.368 194.727 16.208 193.959 16.112C193.767 16.112 193.495 16.112 193.143 16.112C192.823 16.08 192.471 16.064 192.087 16.064C191.703 16.032 191.335 16.016 190.983 16.016C190.663 15.984 190.407 15.968 190.215 15.968C190.055 15.936 189.863 15.92 189.639 15.92C189.415 15.92 189.159 15.92 188.871 15.92C188.903 16.912 188.919 17.872 188.919 18.8C188.919 19.696 188.919 20.672 188.919 21.728C188.887 22.304 188.871 22.88 188.871 23.456C188.871 24.032 188.871 24.592 188.871 25.136L191.847 25.088C192.615 25.088 193.463 25.04 194.391 24.944C195.319 24.848 196.199 24.656 197.031 24.368C197.863 24.08 198.567 23.664 199.143 23.12C199.751 22.576 200.103 21.856 200.199 20.96Z" fill="#00CDE9"/>
<path fill-rule="evenodd" clip-rule="evenodd" d="M17.1544 10.1731C18.5414 10.3557 19.7993 10.7751 20.928 11.4313C22.304 12.1993 23.472 13.2393 24.432 14.5513C25.424 15.8633 26.224 17.3353 26.832 18.9673C27.312 20.1833 27.68 21.4633 27.936 22.8073C28.192 24.1513 28.336 25.4953 28.368 26.8393C28.432 28.1513 28.384 29.4473 28.224 30.7273C28.096 32.0073 27.872 33.1913 27.552 34.2793C27.36 35.0153 27.136 35.6873 26.88 36.2953C26.624 36.9033 26.32 37.5113 25.968 38.1193C25.168 39.4953 24.128 40.6153 22.848 41.4793C21.6 42.3433 20.224 42.9513 18.72 43.3033C18.2175 43.4289 17.7073 43.5237 17.1894 43.5877C16.5662 43.5145 15.9484 43.4037 15.336 43.2553C14.28 42.9673 13.256 42.5673 12.264 42.0553C11.304 41.5113 10.424 40.8393 9.62397 40.0393C8.63197 39.0793 7.81597 37.9753 7.17597 36.7273C6.53597 35.4473 6.03997 34.1193 5.68797 32.7433C5.33597 31.3353 5.11197 29.9273 5.01597 28.5193C4.91997 27.1113 4.91997 25.7673 5.01597 24.4873C5.11197 23.3033 5.33597 22.0393 5.68797 20.6953C6.07197 19.3513 6.61597 18.0553 7.31997 16.8073C8.02397 15.5593 8.87197 14.4393 9.86397 13.4473C10.888 12.4233 12.072 11.6553 13.416 11.1433C14.7416 10.6486 15.9878 10.3252 17.1544 10.1731ZM17.0252 16.3393C16.56 16.2033 16.0529 16.1353 15.504 16.1353C14.544 16.1353 13.472 16.4233 12.288 16.9993C11.584 17.3513 10.976 17.8313 10.464 18.4393C9.98397 19.0473 9.58397 19.7353 9.26397 20.5033C8.97597 21.2713 8.73597 22.0713 8.54397 22.9033C8.38397 23.7353 8.28797 24.5353 8.25597 25.3033C8.19197 26.1353 8.17597 27.0153 8.20797 27.9433C8.23997 28.8393 8.33597 29.7513 8.49597 30.6793C8.68797 31.5753 8.94397 32.4393 9.26397 33.2713C9.58397 34.0713 10.016 34.7913 10.56 35.4313C11.392 36.3913 12.352 37.0633 13.44 37.4473C14.56 37.7993 15.664 37.8473 16.752 37.5913C16.7891 37.5832 16.8261 37.5747 16.8628 37.5659C17.8381 37.8065 18.8011 37.815 19.752 37.5913C21.512 37.2073 22.856 36.0393 23.784 34.0873C24.168 33.3833 24.456 32.5833 24.648 31.6873C25.032 30.1833 25.192 28.4873 25.128 26.5993C25.064 24.7113 24.76 22.9353 24.216 21.2713C23.864 20.2473 23.416 19.3513 22.872 18.5833C22.36 17.7833 21.736 17.1753 21 16.7593C20.296 16.3433 19.464 16.1353 18.504 16.1353C18.0375 16.1353 17.5445 16.2033 17.0252 16.3393ZM60.711 14.5513C60.839 13.7833 60.823 13.0313 60.663 12.2953C60.567 11.8153 60.359 11.3833 60.039 10.9993C59.8086 10.692 59.4757 10.4565 59.0405 10.2927C58.9692 10.3323 58.894 10.3758 58.815 10.4233C58.687 10.5193 58.575 10.6313 58.479 10.7593C58.351 10.9193 58.223 11.0953 58.095 11.2873L57.807 11.7673C57.679 11.9593 57.567 12.1513 57.471 12.3433L57.279 12.8233C57.215 13.0473 57.151 13.2553 57.087 13.4473L56.895 13.9273L56.559 14.7433L49.743 34.4233L48.2343 30.1173L46.743 34.4233L39.831 14.6953L39.543 13.8793C39.479 13.7193 39.399 13.5593 39.303 13.3993C39.207 13.2073 39.127 12.9993 39.063 12.7753C38.999 12.6153 38.919 12.4553 38.823 12.2953C38.759 12.1033 38.679 11.8953 38.583 11.6713L38.199 11.1913C38.103 11.0313 37.991 10.8713 37.863 10.7113C37.735 10.5833 37.591 10.4873 37.431 10.4233C37.352 10.3759 37.273 10.3324 37.194 10.2928C36.4387 10.5966 35.9337 11.0881 35.679 11.7673C35.391 12.5033 35.279 13.3353 35.343 14.2633C35.439 15.1593 35.631 16.0713 35.919 16.9993C36.207 17.8953 36.463 18.6633 36.687 19.3033C37.519 21.5113 38.335 23.8313 39.135 26.2633C39.935 28.6953 40.831 30.9993 41.823 33.1753C42.079 33.7833 42.367 34.5193 42.687 35.3833C43.007 36.2153 43.359 37.0793 43.743 37.9753C44.127 38.8713 44.559 39.7513 45.039 40.6153C45.551 41.4473 46.111 42.1513 46.719 42.7273C47.1586 43.1206 47.64 43.4303 48.1633 43.6563C48.2176 43.6357 48.2721 43.614 48.327 43.5913C49.255 43.2073 50.039 42.5993 50.679 41.7673C51.351 40.9353 51.927 40.0233 52.407 39.0313C52.919 38.0073 53.351 36.9673 53.703 35.9113C54.055 34.8553 54.391 33.9113 54.711 33.0793L55.911 29.7193C56.391 28.3433 56.887 26.8873 57.399 25.3513L58.935 20.7433C59.447 19.2073 59.895 17.8153 60.279 16.5673C60.471 15.9593 60.615 15.2873 60.711 14.5513ZM71.1187 23.2873L71.2147 15.7513V15.6073L80.8147 15.5593H82.9747H83.6467C83.8707 15.5593 84.1107 15.5273 84.3667 15.4633C84.5587 15.4313 84.7507 15.4153 84.9427 15.4153C85.1667 15.3833 85.3747 15.3353 85.5667 15.2713C85.7587 15.2073 85.9187 15.1273 86.0467 15.0313C86.2067 14.9353 86.3507 14.8553 86.4787 14.7913C86.8307 14.4393 87.0227 14.1033 87.0547 13.7833C87.1187 13.6233 87.1507 13.4633 87.1507 13.3033V12.7273C87.1507 12.2793 87.0067 11.8313 86.7187 11.3833C86.3667 10.9993 85.9187 10.7273 85.3747 10.5673C85.0227 10.4393 84.6707 10.3433 84.3187 10.2793C83.9667 10.1833 83.6147 10.1353 83.2627 10.1353C82.9107 10.1033 82.5427 10.0873 82.1587 10.0873C81.7747 10.0873 81.4067 10.0713 81.0547 10.0393H80.8627C80.1653 10.0209 79.4784 10.0078 78.802 10C78.11 10.0078 77.3969 10.0209 76.6627 10.0393C75.9907 10.0393 75.4627 10.0553 75.0787 10.0873H73.9747H72.9667H72.0787H71.5747V10.1353C71.4467 10.1033 71.2547 10.0873 70.9987 10.0873C70.4867 10.0873 69.9907 10.2313 69.5107 10.5193C69.2547 10.6473 69.0467 10.8073 68.8867 10.9993C68.7587 11.1913 68.6307 11.4153 68.5027 11.6713C68.1827 12.2793 68.0067 12.9033 67.9747 13.5433C67.9747 13.8633 67.9587 14.1833 67.9267 14.5033C67.9267 14.7913 67.9107 15.1113 67.8787 15.4633V15.7033C67.8467 16.7593 67.8147 17.7353 67.7827 18.6313V21.7033V28.0873L67.6867 34.9993V38.7433C67.6867 38.8713 67.6707 38.9993 67.6387 39.1273V39.5113V40.2793C67.6707 40.4393 67.6867 40.5993 67.6867 40.7593L67.7827 41.2393C67.7827 41.3993 67.7987 41.5753 67.8307 41.7673C67.8627 41.9273 67.9107 42.0873 67.9747 42.2473C68.0067 42.3113 68.0387 42.3593 68.0707 42.3913C68.1027 42.4233 68.1347 42.4713 68.1667 42.5353C68.1667 42.6313 68.2147 42.7273 68.3107 42.8233C68.5027 43.2073 68.7747 43.5113 69.1267 43.7353C69.4467 43.9486 69.8236 44.0766 70.2574 44.1193H70.9507H71.1667H72.1987H73.1107H74.1667C74.5507 44.1513 75.0627 44.1673 75.7027 44.1673C76.5282 44.1869 77.3446 44.2005 78.152 44.2081C78.9366 44.2005 79.7122 44.1869 80.4787 44.1673H80.7667C81.1187 44.1353 81.4867 44.1193 81.8707 44.1193C82.2547 44.1193 82.6227 44.1033 82.9747 44.0713C83.7747 44.0713 84.5107 43.9273 85.1827 43.6393C85.6947 43.5113 86.1427 43.2233 86.5267 42.7753C86.8467 42.3593 87.0067 41.8953 87.0067 41.3833C87.0387 41.1913 87.0387 41.0153 87.0067 40.8553C87.0067 40.6633 86.9907 40.4873 86.9587 40.3273C86.8627 39.9753 86.6547 39.6393 86.3347 39.3193C86.0787 39.0953 85.7587 38.9193 85.3747 38.7913C85.1827 38.7273 84.9747 38.6953 84.7507 38.6953C84.5587 38.6633 84.3347 38.6153 84.0787 38.5513C83.8867 38.5193 83.6787 38.5033 83.4547 38.5033H82.7347H80.4787L70.9267 38.4073L71.0227 28.9993L79.9027 28.9513H82.1587C82.6067 28.9513 83.0547 28.9033 83.5027 28.8073C83.9187 28.7753 84.3347 28.6953 84.7507 28.5673C85.1987 28.4713 85.5027 28.3113 85.6627 28.0873C86.0147 27.7993 86.2227 27.4793 86.2867 27.1273C86.3507 26.9673 86.3827 26.7913 86.3827 26.5993V26.0233C86.3827 25.5113 86.2227 25.0473 85.9027 24.6313C85.5507 24.2473 85.1027 23.9593 84.5587 23.7673C84.2067 23.6713 83.8547 23.5913 83.5027 23.5273C83.1507 23.4313 82.7827 23.3673 82.3987 23.3353H81.2947C80.9427 23.3033 80.5747 23.2873 80.1907 23.2873H79.9507C79.2789 23.27 78.6395 23.2575 78.0325 23.2495C77.4097 23.2575 76.745 23.27 76.0387 23.2873H74.1187L74.119 23.2639C73.7705 23.2704 73.4104 23.2782 73.0387 23.2873H71.1187ZM115.654 42.7753C115.75 42.4873 115.782 42.1833 115.75 41.8633C115.686 41.5753 115.606 41.2073 115.51 40.7593C115.414 40.5993 115.318 40.4233 115.222 40.2313C115.158 40.0393 115.078 39.8633 114.982 39.7033C114.918 39.5433 114.838 39.3833 114.742 39.2233C114.646 39.0633 114.566 38.9193 114.502 38.7913L114.07 38.0233L109.654 29.1433C109.718 29.1113 109.798 29.0953 109.894 29.0953C110.022 29.0633 110.118 29.0153 110.182 28.9513C111.974 28.2473 113.27 27.1753 114.07 25.7353C114.902 24.2953 115.318 22.7113 115.318 20.9833C115.318 19.5113 115.03 18.0553 114.454 16.6153C113.878 15.1753 113.03 13.9433 111.91 12.9193C111.558 12.5993 111.078 12.2633 110.47 11.9113C109.99 11.6873 109.462 11.4633 108.886 11.2393C107.99 10.8873 107.014 10.6473 105.958 10.5193C104.934 10.3593 103.958 10.2473 103.03 10.1833C101.622 10.1193 100.214 10.0873 98.8065 10.0873C98.0215 10.0873 97.2316 10.0823 96.4367 10.0724C96.1741 10.1054 95.948 10.1584 95.7585 10.2313C95.3745 10.3593 95.0865 10.5193 94.8945 10.7113C94.6705 10.8713 94.5105 11.1433 94.4145 11.5273C94.2225 11.8793 94.1105 12.2313 94.0785 12.5833C94.0465 12.7433 94.0145 12.9353 93.9825 13.1593V13.7353V40.9993C93.9825 41.2873 94.0305 41.5913 94.1265 41.9113C94.1905 42.0713 94.2385 42.2473 94.2705 42.4393L94.4625 42.9193C94.5265 43.0793 94.6065 43.2393 94.7025 43.3993C94.7985 43.5273 94.9105 43.6393 95.0385 43.7353C95.1948 43.8265 95.3537 43.907 95.5154 43.977C95.5734 43.9465 95.6304 43.914 95.6865 43.8793C96.0705 43.6233 96.3745 43.3193 96.5985 42.9673C96.8225 42.5833 96.9665 42.2153 97.0305 41.8633C97.0625 41.6393 97.0785 41.3993 97.0785 41.1433C97.1105 40.8873 97.1265 40.6793 97.1265 40.5193V39.7993C97.1585 39.5753 97.1745 39.3353 97.1745 39.0793V30.3913H98.0865C98.7265 30.3593 99.3345 30.3593 99.9105 30.3913C99.9978 30.3959 100.086 30.3995 100.174 30.4021V30.3913H101.086C101.191 30.386 101.295 30.3817 101.398 30.3781C101.54 30.3688 101.685 30.3572 101.83 30.3433C102.086 30.3113 102.342 30.2953 102.598 30.2953C102.854 30.2633 103.11 30.2473 103.366 30.2473L103.451 30.407C103.894 30.4099 104.354 30.3886 104.83 30.3433C105.086 30.3113 105.342 30.2953 105.598 30.2953C105.854 30.2633 106.11 30.2473 106.366 30.2473L111.694 40.3753C111.854 40.7273 112.03 41.0633 112.222 41.3833C112.414 41.7033 112.59 41.9913 112.75 42.2473C113.102 42.7913 113.55 43.2873 114.094 43.7353C114.19 43.8229 114.29 43.9006 114.393 43.9684C114.613 43.8645 114.809 43.7548 114.982 43.6393C115.142 43.5113 115.27 43.3833 115.366 43.2553C115.494 43.1273 115.59 42.9673 115.654 42.7753ZM97.1745 15.9433H100.174H100.294H103.294C104.414 15.9433 105.438 15.9753 106.366 16.0393C107.934 16.1033 109.198 16.5353 110.158 17.3353C111.118 18.1033 111.534 19.2873 111.406 20.8873C111.374 21.4313 111.214 21.9433 110.926 22.4233C110.638 22.8713 110.27 23.2713 109.822 23.6233C109.406 23.9753 108.926 24.2633 108.382 24.4873C107.87 24.6793 107.326 24.7753 106.75 24.7753H103.75H100.174H97.1745V19.9753C97.2065 18.5993 97.2065 17.2553 97.1745 15.9433ZM141.895 41.0473C141.895 40.7273 141.863 40.4873 141.799 40.3273C141.703 40.0073 141.479 39.6873 141.127 39.3673C140.903 39.1433 140.615 38.9833 140.263 38.8873C140.071 38.8233 139.879 38.7753 139.687 38.7433C139.495 38.7113 139.271 38.6793 139.015 38.6473C138.791 38.6153 138.567 38.5993 138.343 38.5993C138.119 38.5673 137.911 38.5513 137.719 38.5513H135.463L125.959 38.4553L126.151 15.8473V14.9833V14.4553C126.151 14.2633 126.183 14.0713 126.247 13.8793C126.247 13.6873 126.231 13.4953 126.199 13.3033C126.167 13.1113 126.135 12.9033 126.103 12.6793C126.071 12.3273 125.991 11.9753 125.863 11.6233C125.703 11.3033 125.527 11.0313 125.335 10.8073C125.143 10.6473 124.951 10.5193 124.759 10.4233C124.755 10.4208 124.751 10.4183 124.746 10.4158C124.66 10.4609 124.576 10.5113 124.495 10.5673C124.015 10.8553 123.679 11.2393 123.487 11.7193C123.199 12.2313 123.023 12.8553 122.959 13.5913C122.959 13.9113 122.943 14.2313 122.911 14.5513C122.911 14.8713 122.895 15.1913 122.863 15.5113V15.7513C122.831 16.8393 122.799 17.8313 122.767 18.7273V21.7993V28.2313L122.671 35.1913C122.671 36.2153 122.655 37.2553 122.623 38.3113C122.591 39.3673 122.639 40.4393 122.767 41.5273C122.767 41.6873 122.783 41.8473 122.815 42.0073C122.847 42.1353 122.895 42.2793 122.959 42.4393C123.215 43.1113 123.647 43.6073 124.255 43.9273C124.895 44.2153 125.599 44.3913 126.367 44.4553C126.441 44.4645 126.515 44.473 126.589 44.4807C127.05 44.4758 127.48 44.4833 127.879 44.5033C128.124 44.5063 128.368 44.509 128.612 44.5114C128.647 44.5088 128.683 44.5061 128.719 44.5033C129.519 44.4713 130.239 44.4713 130.879 44.5033C131.675 44.513 132.464 44.5197 133.246 44.5236C134.008 44.5197 134.763 44.513 135.511 44.5033H135.703C136.087 44.4393 136.471 44.4073 136.855 44.4073C137.239 44.4073 137.607 44.3913 137.959 44.3593C138.631 44.3593 139.351 44.2313 140.119 43.9753C140.663 43.7833 141.079 43.4953 141.367 43.1113C141.527 42.9193 141.655 42.7113 141.751 42.4873C141.847 42.2633 141.895 42.0233 141.895 41.7673V41.0473ZM175.444 41.8633C175.444 41.6393 175.428 41.4473 175.396 41.2873C175.396 41.0953 175.38 40.9033 175.348 40.7113C175.284 40.4233 175.204 40.1353 175.108 39.8473L174.964 39.4153L164.98 14.8393L164.692 14.0713C164.628 13.8793 164.548 13.7033 164.452 13.5433C164.356 13.3833 164.276 13.1913 164.212 12.9673C164.052 12.5513 163.876 12.1833 163.684 11.8633C163.428 11.4793 163.188 11.1433 162.964 10.8553C162.772 10.5993 162.5 10.3913 162.148 10.2313C162.129 10.2242 162.109 10.2172 162.088 10.2105C162.068 10.2172 162.048 10.2242 162.028 10.2313C161.676 10.3913 161.404 10.5993 161.212 10.8553L160.828 11.3353C160.7 11.4953 160.588 11.6713 160.492 11.8633C160.3 12.1833 160.124 12.5513 159.964 12.9673C159.9 13.1913 159.82 13.3833 159.724 13.5433C159.628 13.7033 159.548 13.8793 159.484 14.0713L159.196 14.8393L149.212 39.4153L149.068 39.8473C148.972 40.1353 148.892 40.4233 148.828 40.7113L148.732 41.2873V41.8633C148.732 42.2473 148.844 42.5993 149.068 42.9193C149.164 43.0793 149.292 43.2393 149.452 43.3993C149.612 43.5273 149.804 43.6393 150.028 43.7353C150.131 43.7924 150.233 43.8449 150.337 43.8927C150.49 43.8045 150.635 43.704 150.772 43.5913C150.836 43.5273 150.884 43.4953 150.916 43.4953C150.948 43.4633 150.98 43.4153 151.012 43.3513L151.108 43.2553C151.14 43.1913 151.188 43.1433 151.252 43.1113C151.412 42.9513 151.54 42.8073 151.636 42.6793C151.732 42.5193 151.812 42.3593 151.876 42.1993C151.972 42.0393 152.052 41.8953 152.116 41.7673L152.404 41.2873C152.468 41.1593 152.516 41.0473 152.548 40.9513L152.74 40.5673C152.804 40.4393 152.836 40.3113 152.836 40.1833C152.868 40.0553 152.916 39.9273 152.98 39.7993L153.988 37.4473C154.987 37.4617 155.982 37.4729 156.974 37.4809L156.988 37.4473C158.354 37.4671 159.713 37.4807 161.066 37.4883C163.107 37.4609 165.148 37.4473 167.188 37.4473L167.193 37.4571C168.191 37.4505 169.19 37.4473 170.188 37.4473L171.196 39.7993C171.228 40.0233 171.308 40.2793 171.436 40.5673C171.468 40.6953 171.516 40.8233 171.58 40.9513C171.644 41.0473 171.708 41.1593 171.772 41.2873C171.868 41.4473 171.948 41.6073 172.012 41.7673C172.108 41.8953 172.188 42.0393 172.252 42.1993L172.54 42.6793C172.636 42.8073 172.764 42.9513 172.924 43.1113C172.988 43.1433 173.036 43.1913 173.068 43.2553L173.164 43.3513C173.196 43.4153 173.228 43.4633 173.26 43.4953C173.292 43.4953 173.34 43.5273 173.404 43.5913C173.542 43.704 173.687 43.8045 173.84 43.8927C173.944 43.8449 174.046 43.7924 174.148 43.7353C174.372 43.6393 174.564 43.5273 174.724 43.3993C174.884 43.2393 175.012 43.0793 175.108 42.9193C175.332 42.5993 175.444 42.2473 175.444 41.8633ZM164.836 31.0633H159.34H156.34L157.204 28.9513C157.62 28.0233 158.036 27.0633 158.452 26.0713C158.9 25.0793 159.364 24.0713 159.844 23.0473L160.228 22.1833C160.356 21.8633 160.468 21.5593 160.564 21.2713C160.692 21.5593 160.82 21.8633 160.948 22.1833L161.332 23.0473C161.591 23.5998 161.841 24.1476 162.081 24.6908C162.331 24.1476 162.585 23.5998 162.844 23.0473L163.228 22.1833C163.356 21.8633 163.468 21.5593 163.564 21.2713C163.692 21.5593 163.82 21.8633 163.948 22.1833L164.332 23.0473C164.812 24.0713 165.26 25.0793 165.676 26.0713C166.124 27.0633 166.556 28.0233 166.972 28.9513L167.836 31.0633H164.836ZM202.767 17.0473C202.191 15.4793 201.295 14.1353 200.079 13.0153C199.599 12.6633 199.135 12.3433 198.687 12.0553C198.239 11.7673 197.679 11.5273 197.007 11.3353C196.751 11.1753 196.463 11.0633 196.143 10.9993C195.855 10.9353 195.583 10.8713 195.327 10.8073C195.039 10.7433 194.751 10.6953 194.463 10.6633C194.207 10.6313 193.919 10.5833 193.599 10.5193C193.215 10.4553 192.831 10.4073 192.447 10.3753L191.295 10.2793C190.943 10.2473 190.575 10.2313 190.191 10.2313C189.807 10.1993 189.391 10.1513 188.943 10.0873C188.822 10.0727 188.696 10.06 188.565 10.0491C187.488 10.0808 186.502 10.1255 185.607 10.1833H185.511C184.839 10.1833 184.327 10.2473 183.975 10.3753C183.655 10.5033 183.415 10.6473 183.255 10.8073C183.127 10.9033 183.015 11.0153 182.919 11.1433C182.855 11.2713 182.791 11.4153 182.727 11.5753C182.663 11.7353 182.615 11.9113 182.583 12.1033C182.551 12.2953 182.503 12.4713 182.439 12.6313L182.343 13.2073C182.311 13.3993 182.295 13.6073 182.295 13.8313V40.3753C182.295 40.9193 182.343 41.3833 182.439 41.7673C182.567 42.1193 182.695 42.4393 182.823 42.7273C183.015 43.1753 183.255 43.4953 183.543 43.6873C183.697 43.7642 183.866 43.8301 184.049 43.8848C184.167 43.842 184.279 43.7921 184.383 43.7353C184.991 43.3833 185.359 42.8873 185.487 42.2473C185.647 41.6073 185.775 40.9833 185.871 40.3753V30.4393C185.999 30.4073 186.207 30.3913 186.495 30.3913H187.167C187.775 30.3593 188.303 30.3433 188.751 30.3433C189.231 30.3113 189.807 30.2633 190.479 30.1993C191.983 30.0713 193.359 29.8953 194.607 29.6713C195.855 29.4473 197.119 29.0633 198.399 28.5193C200.031 27.8793 201.247 26.9513 202.047 25.7353C202.847 24.4873 203.311 23.1273 203.439 21.6553C203.567 20.1193 203.343 18.5833 202.767 17.0473ZM188.875 16.0231C188.567 16.0019 188.27 15.9913 187.983 15.9913C187.663 15.9593 187.407 15.9433 187.215 15.9433C187.055 15.9113 186.863 15.8953 186.639 15.8953H185.871C185.903 16.8873 185.919 17.8473 185.919 18.7753V21.7033C185.887 22.2793 185.871 22.8553 185.871 23.4313V25.1113L188.847 25.0633C188.855 25.0633 188.863 25.0633 188.871 25.0633V25.1113L191.847 25.0633C192.615 25.0633 193.463 25.0153 194.391 24.9193C195.319 24.8233 196.199 24.6313 197.031 24.3433C197.863 24.0553 198.567 23.6393 199.143 23.0953C199.751 22.5513 200.103 21.8313 200.199 20.9353C200.231 20.1673 200.071 19.4953 199.719 18.9193C199.399 18.3433 198.935 17.8633 198.327 17.4793C197.719 17.0953 197.031 16.7913 196.263 16.5673C195.495 16.3433 194.727 16.1833 193.959 16.0873H193.143C192.823 16.0553 192.471 16.0393 192.087 16.0393C191.703 16.0073 191.335 15.9913 190.983 15.9913C190.663 15.9593 190.407 15.9433 190.215 15.9433C190.055 15.9113 189.863 15.8953 189.639 15.8953H188.871C188.872 15.9379 188.874 15.9806 188.875 16.0231Z" fill="black"/>
</svg>
