<svg width="66" height="120" viewBox="0 0 66 120" fill="none" xmlns="http://www.w3.org/2000/svg">
<path d="M20.832 23.336C25.12 21.736 28.992 21.032 32.448 21.224C35.968 21.416 39.104 22.312 41.856 23.912C44.608 25.448 46.944 27.528 48.864 30.152C50.848 32.776 52.448 35.72 53.664 38.984C54.624 41.416 55.36 43.976 55.872 46.664C56.384 49.352 56.672 52.04 56.736 54.728C56.864 57.352 56.768 59.944 56.448 62.504C56.192 65.064 55.744 67.432 55.104 69.608C54.72 71.08 54.272 72.424 53.76 73.64C53.248 74.856 52.64 76.072 51.936 77.288C50.336 80.04 48.256 82.28 45.696 84.008C43.2 85.736 40.448 86.952 37.44 87.656C35.392 88.168 33.28 88.424 31.104 88.424C28.928 88.36 26.784 88.072 24.672 87.56C22.56 86.984 20.512 86.184 18.528 85.16C16.608 84.072 14.848 82.728 13.248 81.128C11.264 79.208 9.632 77 8.352 74.504C7.072 71.944 6.08 69.288 5.376 66.536C4.672 63.72 4.224 60.904 4.032 58.088C3.84 55.272 3.84 52.584 4.032 50.024C4.224 47.656 4.672 45.128 5.376 42.44C6.144 39.752 7.232 37.16 8.64 34.664C10.048 32.168 11.744 29.928 13.728 27.944C15.776 25.896 18.144 24.36 20.832 23.336ZM43.296 64.424C44.064 61.416 44.384 58.024 44.256 54.248C44.128 50.472 43.52 46.92 42.432 43.592C41.728 41.544 40.832 39.752 39.744 38.216C38.72 36.616 37.472 35.4 36 34.568C34.592 33.736 32.928 33.32 31.008 33.32C29.088 33.32 26.944 33.896 24.576 35.048C23.168 35.752 21.952 36.712 20.928 37.928C19.968 39.144 19.168 40.52 18.528 42.056C17.952 43.592 17.472 45.192 17.088 46.856C16.768 48.52 16.576 50.12 16.512 51.656C16.384 53.32 16.352 55.08 16.416 56.936C16.48 58.728 16.672 60.552 16.992 62.408C17.376 64.2 17.888 65.928 18.528 67.592C19.168 69.192 20.032 70.632 21.12 71.912C22.784 73.832 24.704 75.176 26.88 75.944C29.12 76.648 31.328 76.744 33.504 76.232C37.024 75.464 39.712 73.128 41.568 69.224C42.336 67.816 42.912 66.216 43.296 64.424Z" fill="#FE0604"/>
<path d="M23.832 23.336C28.12 21.736 31.992 21.032 35.448 21.224C38.968 21.416 42.104 22.312 44.856 23.912C47.608 25.448 49.944 27.528 51.864 30.152C53.848 32.776 55.448 35.72 56.664 38.984C57.624 41.416 58.36 43.976 58.872 46.664C59.384 49.352 59.672 52.04 59.736 54.728C59.864 57.352 59.768 59.944 59.448 62.504C59.192 65.064 58.744 67.432 58.104 69.608C57.72 71.08 57.272 72.424 56.76 73.64C56.248 74.856 55.64 76.072 54.936 77.288C53.336 80.04 51.256 82.28 48.696 84.008C46.2 85.736 43.448 86.952 40.44 87.656C38.392 88.168 36.28 88.424 34.104 88.424C31.928 88.36 29.784 88.072 27.672 87.56C25.56 86.984 23.512 86.184 21.528 85.16C19.608 84.072 17.848 82.728 16.248 81.128C14.264 79.208 12.632 77 11.352 74.504C10.072 71.944 9.08 69.288 8.376 66.536C7.672 63.72 7.224 60.904 7.032 58.088C6.84 55.272 6.84 52.584 7.032 50.024C7.224 47.656 7.672 45.128 8.376 42.44C9.144 39.752 10.232 37.16 11.64 34.664C13.048 32.168 14.744 29.928 16.728 27.944C18.776 25.896 21.144 24.36 23.832 23.336ZM46.296 64.424C47.064 61.416 47.384 58.024 47.256 54.248C47.128 50.472 46.52 46.92 45.432 43.592C44.728 41.544 43.832 39.752 42.744 38.216C41.72 36.616 40.472 35.4 39 34.568C37.592 33.736 35.928 33.32 34.008 33.32C32.088 33.32 29.944 33.896 27.576 35.048C26.168 35.752 24.952 36.712 23.928 37.928C22.968 39.144 22.168 40.52 21.528 42.056C20.952 43.592 20.472 45.192 20.088 46.856C19.768 48.52 19.576 50.12 19.512 51.656C19.384 53.32 19.352 55.08 19.416 56.936C19.48 58.728 19.672 60.552 19.992 62.408C20.376 64.2 20.888 65.928 21.528 67.592C22.168 69.192 23.032 70.632 24.12 71.912C25.784 73.832 27.704 75.176 29.88 75.944C32.12 76.648 34.328 76.744 36.504 76.232C40.024 75.464 42.712 73.128 44.568 69.224C45.336 67.816 45.912 66.216 46.296 64.424Z" fill="#00CDE9"/>
<path d="M20.832 23.336C25.12 21.736 28.992 21.032 32.448 21.224C35.968 21.416 39.104 22.312 41.856 23.912C44.608 25.448 46.944 27.528 48.864 30.152C50.848 32.776 52.448 35.72 53.664 38.984C54.624 41.416 55.36 43.976 55.872 46.664C56.384 49.352 56.672 52.04 56.736 54.728C56.864 57.352 56.768 59.944 56.448 62.504C56.192 65.064 55.744 67.432 55.104 69.608C54.72 71.08 54.272 72.424 53.76 73.64C53.248 74.856 52.64 76.072 51.936 77.288C50.336 80.04 48.256 82.28 45.696 84.008C43.2 85.736 40.448 86.952 37.44 87.656C35.392 88.168 33.28 88.424 31.104 88.424C28.928 88.36 26.784 88.072 24.672 87.56C22.56 86.984 20.512 86.184 18.528 85.16C16.608 84.072 14.848 82.728 13.248 81.128C11.264 79.208 9.632 77 8.352 74.504C7.072 71.944 6.08 69.288 5.376 66.536C4.672 63.72 4.224 60.904 4.032 58.088C3.84 55.272 3.84 52.584 4.032 50.024C4.224 47.656 4.672 45.128 5.376 42.44C6.144 39.752 7.232 37.16 8.64 34.664C10.048 32.168 11.744 29.928 13.728 27.944C15.776 25.896 18.144 24.36 20.832 23.336ZM43.296 64.424C44.064 61.416 44.384 58.024 44.256 54.248C44.128 50.472 43.52 46.92 42.432 43.592C41.728 41.544 40.832 39.752 39.744 38.216C38.72 36.616 37.472 35.4 36 34.568C34.592 33.736 32.928 33.32 31.008 33.32C29.088 33.32 26.944 33.896 24.576 35.048C23.168 35.752 21.952 36.712 20.928 37.928C19.968 39.144 19.168 40.52 18.528 42.056C17.952 43.592 17.472 45.192 17.088 46.856C16.768 48.52 16.576 50.12 16.512 51.656C16.384 53.32 16.352 55.08 16.416 56.936C16.48 58.728 16.672 60.552 16.992 62.408C17.376 64.2 17.888 65.928 18.528 67.592C19.168 69.192 20.032 70.632 21.12 71.912C22.784 73.832 24.704 75.176 26.88 75.944C29.12 76.648 31.328 76.744 33.504 76.232C37.024 75.464 39.712 73.128 41.568 69.224C42.336 67.816 42.912 66.216 43.296 64.424Z" fill="#FE0604"/>
<path d="M25.832 23.336C30.12 21.736 33.992 21.032 37.448 21.224C40.968 21.416 44.104 22.312 46.856 23.912C49.608 25.448 51.944 27.528 53.864 30.152C55.848 32.776 57.448 35.72 58.664 38.984C59.624 41.416 60.36 43.976 60.872 46.664C61.384 49.352 61.672 52.04 61.736 54.728C61.864 57.352 61.768 59.944 61.448 62.504C61.192 65.064 60.744 67.432 60.104 69.608C59.72 71.08 59.272 72.424 58.76 73.64C58.248 74.856 57.64 76.072 56.936 77.288C55.336 80.04 53.256 82.28 50.696 84.008C48.2 85.736 45.448 86.952 42.44 87.656C40.392 88.168 38.28 88.424 36.104 88.424C33.928 88.36 31.784 88.072 29.672 87.56C27.56 86.984 25.512 86.184 23.528 85.16C21.608 84.072 19.848 82.728 18.248 81.128C16.264 79.208 14.632 77 13.352 74.504C12.072 71.944 11.08 69.288 10.376 66.536C9.672 63.72 9.224 60.904 9.032 58.088C8.84 55.272 8.84 52.584 9.032 50.024C9.224 47.656 9.672 45.128 10.376 42.44C11.144 39.752 12.232 37.16 13.64 34.664C15.048 32.168 16.744 29.928 18.728 27.944C20.776 25.896 23.144 24.36 25.832 23.336ZM48.296 64.424C49.064 61.416 49.384 58.024 49.256 54.248C49.128 50.472 48.52 46.92 47.432 43.592C46.728 41.544 45.832 39.752 44.744 38.216C43.72 36.616 42.472 35.4 41 34.568C39.592 33.736 37.928 33.32 36.008 33.32C34.088 33.32 31.944 33.896 29.576 35.048C28.168 35.752 26.952 36.712 25.928 37.928C24.968 39.144 24.168 40.52 23.528 42.056C22.952 43.592 22.472 45.192 22.088 46.856C21.768 48.52 21.576 50.12 21.512 51.656C21.384 53.32 21.352 55.08 21.416 56.936C21.48 58.728 21.672 60.552 21.992 62.408C22.376 64.2 22.888 65.928 23.528 67.592C24.168 69.192 25.032 70.632 26.12 71.912C27.784 73.832 29.704 75.176 31.88 75.944C34.12 76.648 36.328 76.744 38.504 76.232C42.024 75.464 44.712 73.128 46.568 69.224C47.336 67.816 47.912 66.216 48.296 64.424Z" fill="#00CDE9"/>
<path fill-rule="evenodd" clip-rule="evenodd" d="M33.9215 21.3354C31.445 21.6087 28.7859 22.2756 25.944 23.336C23.256 24.36 20.888 25.896 18.84 27.944C16.856 29.928 15.16 32.168 13.752 34.664C12.344 37.16 11.256 39.752 10.488 42.44C9.784 45.128 9.336 47.656 9.144 50.024C8.952 52.584 8.952 55.272 9.144 58.088C9.336 60.904 9.784 63.72 10.488 66.536C11.192 69.288 12.184 71.944 13.464 74.504C14.744 77 16.376 79.208 18.36 81.128C19.96 82.728 21.72 84.072 23.64 85.16C25.624 86.184 27.672 86.984 29.784 87.56C31.1761 87.8975 32.5821 88.1376 34.0021 88.2805C35.206 88.1548 36.3893 87.9466 37.552 87.656C40.56 86.952 43.312 85.736 45.808 84.008C48.368 82.28 50.448 80.04 52.048 77.288C52.752 76.072 53.36 74.856 53.872 73.64C54.384 72.424 54.832 71.08 55.216 69.608C55.856 67.432 56.304 65.064 56.56 62.504C56.88 59.944 56.976 57.352 56.848 54.728C56.784 52.04 56.496 49.352 55.984 46.664C55.472 43.976 54.736 41.416 53.776 38.984C52.56 35.72 50.96 32.776 48.976 30.152C47.056 27.528 44.72 25.448 41.968 23.912C39.5759 22.5213 36.8938 21.6624 33.9215 21.3354ZM49.368 54.248C49.496 58.024 49.176 61.416 48.408 64.424C48.024 66.216 47.448 67.816 46.68 69.224C44.824 73.128 42.136 75.464 38.616 76.232C37.3705 76.525 36.1146 76.6189 34.8482 76.5136C34.0185 76.5832 33.1842 76.5658 32.3454 76.4614C32.223 76.4768 32.1006 76.4904 31.978 76.502C30.334 76.658 28.672 76.472 26.992 75.944C24.816 75.176 22.896 73.832 21.232 71.912C20.144 70.632 19.28 69.192 18.64 67.592C18 65.928 17.488 64.2 17.104 62.408C16.784 60.552 16.592 58.728 16.528 56.936C16.464 55.08 16.496 53.32 16.624 51.656C16.688 50.12 16.88 48.52 17.2 46.856C17.584 45.192 18.064 43.592 18.64 42.056C19.28 40.52 20.08 39.144 21.04 37.928C22.064 36.712 23.28 35.752 24.688 35.048C27.056 33.896 29.2 33.32 31.12 33.32C31.6647 33.32 32.1888 33.3535 32.6923 33.4204C33.1812 33.3535 33.6571 33.32 34.12 33.32C34.4822 33.32 34.8353 33.3348 35.1793 33.3644C35.4986 33.3348 35.8122 33.32 36.12 33.32C38.04 33.32 39.704 33.736 41.112 34.568C42.584 35.4 43.832 36.616 44.856 38.216C45.944 39.752 46.84 41.544 47.544 43.592C48.632 46.92 49.24 50.472 49.368 54.248Z" fill="black"/>
</svg>
